<?xml version="1.0" encoding="utf-8"?>
<!-- Generator: Adobe Illustrator 19.0.0, SVG Export Plug-In . SVG Version: 6.00 Build 0)  -->
<svg version="1.1" id="Layer_1" xmlns="http://www.w3.org/2000/svg" xmlns:xlink="http://www.w3.org/1999/xlink" x="0px" y="0px"
	 viewBox="0 0 2000 2000" style="enable-background:new 0 0 2000 2000;" xml:space="preserve">
<style type="text/css">
	.st0{fill:#ACC1A8;}
	.st1{fill:#FFFFFF;}
</style>
<g id="Layer_4">
	<g id="XMLID_89_">
		<path id="XMLID_41_" class="st0" d="M1006.6,1501.8c-101.4,0-199.7-19.9-292.3-59c-89.4-37.8-169.7-92-238.7-160.9
			s-123.1-149.3-160.9-238.7c-39.2-92.6-59-190.9-59-292.3s19.9-199.7,59-292.3c37.8-89.4,92-169.7,160.9-238.7S624.9,96.8,714.3,59
			c92.6-39.2,190.9-59,292.3-59s199.7,19.9,292.3,59c89.4,37.8,169.7,92,238.7,160.9s123.1,149.3,160.9,238.7
			c39.2,92.6,59,190.9,59,292.3s-19.9,199.7-59,292.3c-37.8,89.4-92,169.7-160.9,238.7s-149.3,123.1-238.7,160.9
			C1206.3,1481.9,1108,1501.8,1006.6,1501.8z M1006.6,36.1c-394.1,0-714.8,320.6-714.8,714.8c0,394.1,320.6,714.8,714.8,714.8
			c394.1,0,714.8-320.6,714.8-714.8C1721.4,356.8,1400.7,36.1,1006.6,36.1z"/>
	</g>
</g>
<g id="Layer_3">
	<g id="XMLID_87_">
		<path id="XMLID_2_" class="st0" d="M816.4,169.3c-25.2-26.8-54.1-2.1-47.2,27.3C808.8,367.9,1064.3,745,1175,738.1
			c8.8,4.2,13,11.3,15.3,19.9c-7.3,22.4,0.8,39.2,18.2,52.9c5.7,4.4,10.7,9.2,15.1,14.7l154.6,200.3l213.1,267.4
			c46.6,61,103.4,9.9,58.1-44.9l-209.9-271.8l-153.7-199c-4-5.2-7.1-11.1-9.4-17.2c-7.6-19.7-20.6-33.1-46.4-31.9
			c-10.7-3.4-16.1-9.9-17.6-19.1c1.9-17.4-2.1-30.4-10.3-40.1L816.4,169.3z"/>
	</g>
</g>
<g id="Layer_1_1_">
	<g id="XMLID_45_">
		<g id="XMLID_78_">
			<path id="XMLID_33_" class="st1" d="M306.1,1715.5c31-102.8,112.2-184.2,186.9-219c-83.5-51.4-111.2-137.6-103.4-215.2
				c6.7-57.5,43.4-150.8,139.1-187.7c15.5-6.1,30-8.4,42.2-10.7c93.3-12,144.5,63.3,121.2,138.6l-4.4,12c-1,2.3-4.4,3.6-6.7,2.3
				c-3.4-1.3-4.4-4.8-3.4-7.1c28.9-75.3-28.9-135.1-94.6-123.1c-74.5,14.3-117.9,76.6-133.4,155.4c-18.9,87.3,5.5,166.3,78.9,221.3
				c63.3-22.7,142.4-33.6,140.1,20.3c-2.3,49.1-82.2,37.1-140.1,12c-140.1,87.3-181.2,277.5-160,358.9
				c21.2,76.6,94.6,122.1,196.7,53.9c100-65.9,144.5-144.5,182.3-263c1-3.6,7.1-3.6,9.4-2.3c3.4,0,1.5-0.8,0.4,2.7
				c-34.4,111.2-73,183.7-160.9,254.2c-78.9,65.9-173.5,90.8-232.4,49.1C312.8,1933.2,267.3,1849.3,306.1,1715.5z M555.2,1500.1
				c53.3,30,100,22.7,100,0C655.3,1478.7,611.9,1471.3,555.2,1500.1z"/>
			<path id="XMLID_36_" class="st1" d="M433.2,1994.2c-27.4,0-52.3-7-72.7-21.4c-54.6-37.1-99.1-124.7-60.1-259l0-0.1
				c14.8-48.9,41.8-96.3,78.3-137.2c30.2-33.9,66.2-62.2,102.3-80.8c-69.9-47.4-106.1-127-97.3-215.1
				c7.8-66.5,49.8-156.7,142.8-192.6c14.4-5.6,27.6-8.1,39.2-10.2l4.3-0.8c44.9-5.7,83.4,7.4,108.3,37.1
				c24.3,28.9,31.5,69.7,19.3,109.1l-0.1,0.3l-4.6,12.4c-1.2,2.6-3.5,4.7-6.5,5.7c-2.7,0.9-5.6,0.7-8-0.4c-2.9-1.2-5.2-3.4-6.3-6.3
				c-1.1-2.8-1.2-5.8,0-8.4c12.5-32.7,8.6-64.8-10.8-88.1c-18.5-22.4-47.4-32.4-77.3-27c-66.3,12.7-112,66.3-128.7,150.8
				c-19,88,6.6,161.7,74.1,213.5c25.9-9,98.1-30.8,130-7.3c10.5,7.8,15.6,19.4,14.9,34.5c-0.6,13.5-6.6,24.1-17.4,30.8
				c-27.6,17.2-83.7,6.3-128.1-12.5c-76.1,48.5-115.7,122.9-135.5,177c-22.9,62.6-30.5,130.8-19.4,173.7
				c10.4,37.7,33.8,65.8,64.1,77.1c35.2,13.1,78,3.9,123.7-26.6c102.3-67.4,144.7-149.4,179.9-259.9c0.8-2.7,2.9-4.9,5.8-6.1
				c3.1-1.3,7.1-1.4,10.3-0.3c4-0.4,5.7,2.4,6.1,3.2c0.9,1.7,1.1,4.4-0.9,6.7l0,0c0,0-0.1,0.1-0.2,0.4
				c-33,106.6-70.2,182.9-162.8,257.1C544.7,1969.7,484.6,1994.2,433.2,1994.2z M311.7,1717.1c-37.2,128.2,4.3,211.1,55.6,246
				c51.8,36.7,137.2,20.2,215.3-40.6c-4.6,3.3-9.3,6.5-14.2,9.7c-61.8,41.3-107.2,37.9-134.3,27.8c-33.8-12.6-59.8-43.6-71.3-85
				c-11.8-45.2-4-116.1,19.7-180.8c20.7-56.5,62.3-134.4,142.9-184.6l2.6-1.6l2.8,1.2c40.6,17.7,95.5,29.7,120,14.5
				c7.5-4.7,11.4-11.7,11.9-21.3c0.5-11.1-2.8-19.1-10.2-24.5c-22.7-16.7-78-5.8-122.1,10l-3,1.1l-2.5-1.9
				c-72.3-54.1-101.1-134.8-81.1-227.2c17.6-89.4,66.6-146.3,138-159.9c33.7-6.1,67.6,5.8,88.6,31.1c17.5,21.1,24,48.2,19.1,76.7
				c6.3-31.6-0.9-63-20.2-85.9c-22.3-26.5-56.9-38.2-97.6-33l-3.8,0.7c-11.1,2.1-23.8,4.4-37.1,9.6c-88.1,34-128,119.8-135.4,182.9
				c-8.7,87,28.9,165.4,100.6,209.5l9.3,5.7l-9.9,4.6C426.7,1533.9,343.2,1612.9,311.7,1717.1z M621.1,1525.8
				c-18.6,0-42.5-5.9-68.7-20.6l-9.6-5.4l9.8-5c39.6-20.1,77.9-25.3,97.5-13.2c7.1,4.4,11.1,10.9,11.1,18.5c0,8-4.3,14.9-12.1,19.5
				C642.3,1523.5,632.7,1525.8,621.1,1525.8z M568.4,1500.3c32.6,15.6,61.6,16.8,74.7,9.1c4.2-2.4,6.3-5.6,6.3-9.4
				c0-3.4-1.8-6.2-5.5-8.4C632.2,1484.4,604.2,1484.5,568.4,1500.3z"/>
		</g>
		<g id="XMLID_69_">
			<path id="XMLID_15_" class="st1" d="M815.3,1786.4c0,0-27.1,118.7-93.5,114.9c-16.8-0.8-33.8-12.2-41.1-32.7
				c-18.7-50.5-2.7-142,41.1-187.7c37.5-38.4,100.3-48.7,119.8-51.4c5.7-18.7,45.9-7.6,45.9-7.6s-49.7,299.9,1.9,290.5
				c1.9,0,5.7-0.8,9.4-3.8c45.9-30.8,88.9-159.8,105.7-211.2c0.8-2.7,3.8-3.8,5.7-2.7c2.7,0,3.8,2.7,2.7,5.7
				c-31.9,100.9-60,157.9-82.4,188.8c-12.2,14.9-28.1,34.6-45.9,38.4C818,1938.6,808.8,1858.3,815.3,1786.4z M789.9,1819.9
				c21.6-56,28.9-97.1,41.1-172.8c0,0-31.9-5.7-62.7,30c-43,46.8-64.6,137.4-45.9,187.7C738.5,1907,770.4,1871.3,789.9,1819.9z"/>
			<path id="XMLID_28_" class="st1" d="M872.6,1933.3c-14.3,0-26.4-4.5-36.1-13.5c-21.7-20.1-27.8-59.1-27.8-96.8
				c-13.9,35.9-41.5,85.7-87.3,83.1c-20.1-1-37.9-15.1-45.3-35.9c-18.7-50.6-4.7-143.8,42.2-192.6c34.2-34.9,88.6-47.8,119.8-52.4
				c9.3-18.6,46.2-9,50.6-7.8l4.1,1.1l-0.7,4.2c-11.6,70-36,257.4-9.9,283c1.9,1.8,3.8,2.5,6.3,2l0.9-0.1c0.8,0,3.6-0.5,6.5-2.8
				l0.3-0.2C941.8,1874,985.6,1740,1000,1696c0.8-2.6,2.7-4.7,5.3-5.8c2-0.8,4.2-0.9,6.1-0.2c2.1,0.3,4,1.4,5.2,3.1
				c1.7,2.4,2,5.6,0.8,8.8c-28.1,88.9-56.1,152.9-83.1,190l-0.6,0.7c-12.9,15.8-29,35.5-48.2,39.5
				C881,1932.9,876.8,1933.3,872.6,1933.3z M810.7,1785.3l9.4,1.5c-5.6,62.3,2.5,107,23,126c10.4,9.6,23.7,12.9,40.7,10
				c8-1.7,15.9-7.4,23.2-14.3c-1.8,1.5-3.6,2.8-5.3,4c-4.3,3.3-8.8,4.5-11.8,4.7c-5.4,0.9-10.3-0.7-14.3-4.7
				c-32.9-32.3-0.2-246,6.5-287c-11.5-2.5-32.9-4.8-36,5.3l-0.9,2.9l-3,0.4c-29.5,4.1-83.9,16.1-117,50
				c-43.7,45.6-57.4,135.7-40,182.7c6.1,17.2,20.6,28.8,36.9,29.6C783.8,1900.1,810.4,1786.5,810.7,1785.3z M741,1888.2
				c-9.8,0-17.6-7.3-23.1-21.7c-19.6-52.9,2.8-144.7,46.9-192.6c32.1-37.2,65.6-31.7,67.1-31.5l4.6,0.8l-0.7,4.6
				c-12,74.9-19.4,116.7-41.4,173.8C782.2,1853.8,761.8,1888.2,741,1888.2C741.1,1888.2,741,1888.2,741,1888.2z M825.5,1651.5
				c-9.4,0-31.5,3.2-53.6,28.7c-41.4,45-63.3,133.9-45.1,182.9c2.7,7.1,7.4,15.5,14.2,15.5c0,0,0,0,0,0c12.7,0,30.9-24.9,44.4-60.4
				l0,0C806.7,1763.3,814.1,1722.6,825.5,1651.5z"/>
		</g>
		<g id="XMLID_58_">
			<path id="XMLID_16_" class="st1" d="M1302.1,1795.4c0.2-8.8,0.6-17.6,1-26.6 M1303.4,1768.7c4.6-68.8,21.4-137.2,21.4-137.2
				c4.6-19.7,45.9-8.4,45.9-8.4s-46.8,289.7,2.7,271.8c14.9-5.7,31.9-26.2,49.7-57.9c19.7-34.6,42.2-84.9,65.4-149.5
				c0-2.7,2.7-3.8,5.7-2.7c2.7,0.8,3.8,2.7,2.7,5.7c-46.8,129.8-86.2,200.9-121.6,213.9l-6.5,1.9c-53.9,11.5-67.5-45.7-66.5-111
				 M1331.3,1560.7c-1.9-13,6.5-25.2,19.7-27.1c13-2.7,25.4,5.7,28.1,18.7c1.9,13-6.5,25.2-19.7,28.1
				C1346.2,1582.3,1334,1573.9,1331.3,1560.7z"/>
			<path id="XMLID_20_" class="st1" d="M1355.6,1912.6c-11.4,0-21.2-3.4-29.4-10.1c-19.9-16.3-29.5-52.4-28.6-107.1l4.1,0.1
				l-4.3-0.1c0.2-8.5,0.6-16.9,1-25.8l0-1l5.5,0.3l-5.2-0.4c4.6-68.4,21.4-137.3,21.5-138c1.1-4.7,4-8.6,8.3-11.2
				c14.1-8.4,40.5-1.5,43.5-0.7l4.1,1.1l-0.7,4.2c-0.1,0.6-9.9,61.6-15.7,125c-10.4,113.7,1,136.4,6.4,140.9
				c1.1,0.9,2.7,1.8,5.7,0.7c9.1-3.5,24.8-16,47.2-55.7c20.4-35.7,42.8-87,64.9-148.2c0.3-2.2,1.4-4.1,3.2-5.4
				c2.4-1.7,5.5-2,8.7-0.9c3.3,1,4.8,3,5.5,4.4c0.7,1.5,1.4,4,0.2,7.4c-48.5,134.5-88,203.4-124.5,216.8l-0.3,0.1l-6.8,2
				C1364.8,1912.1,1360.1,1912.6,1355.6,1912.6z M1306.9,1795.5l0.2,0c-0.8,51.7,7.6,85.2,25.1,99.6c9.2,7.6,20.8,9.7,35.4,6.6
				l6.2-1.8c0.1-0.1,0.3-0.1,0.4-0.2c-5.3,1.7-10.2,0.7-14.2-2.6c-5.4-4.5-21.8-18.1-9.8-149.1c4.9-53.9,12.7-106.1,15.1-121.2
				c-8.9-1.9-24.4-3.9-32,0.7c-2.1,1.3-3.4,2.9-3.9,5.2c-0.2,0.7-16.7,68.8-21.3,136.4l-0.2,0l0,0.9
				C1307.5,1778.7,1307.1,1787,1306.9,1795.5z M1443.4,1808.8c-5.5,11.2-10.9,21.4-16.2,30.7c-7.3,13-14.4,24-21.2,32.9
				C1417.8,1857.2,1430.3,1836,1443.4,1808.8z M1355.6,1585.4c-14,0-26.1-9.6-29-23.8l0-0.3c-1.1-7.8,0.8-15.5,5.4-21.6
				c4.4-5.9,10.9-9.7,18.2-10.8c7.5-1.5,15.1-0.1,21.4,4.2c6.3,4.2,10.6,10.7,12.2,18.2l0.1,0.3c2.3,15.6-7.8,30-23.4,33.4l-0.4,0.1
				C1358.6,1585.3,1357.1,1585.4,1355.6,1585.4z M1336,1559.9c2.2,10.5,11.9,17.3,22.6,15.8c10.5-2.4,17.3-12.1,15.9-22.6
				c-1.1-5-4-9.3-8.2-12.1c-4.2-2.8-9.3-3.8-14.3-2.7l-0.3,0.1c-4.9,0.7-9.2,3.2-12.1,7.1C1336.5,1549.5,1335.2,1554.6,1336,1559.9z
				"/>
		</g>
		<g id="XMLID_52_">
			<path id="XMLID_8_" class="st1" d="M1695.4,1683c-27.1,76.6-54.3,150.4-84.3,190.7c-11.3,14.9-25.4,30-44.9,33.6
				c-91.7,15.9-83.3-207.4-67.3-357.8l0.8-9.4c-19.7,6.5-8.8,8.8-40.1,11.1c-17,1.3-25.2-3.1-24.1-7.6c0.8-3.4,10.1-1.7,14.3-1.9
				c17.2,1.5,19.1-1.9,50.8-12.2c8.4-65.4,15.9-113.9,15.9-113.9c3.1-10.7,18.9-12,31.7-10.9c9.4,0.6,16.1,9,15.1,18.5
				c-2.1,18.5-6.1,51.6-10.3,92.5v0.8c26.2-3.8,56.2-2.7,88.9,13c1.9,0.8,2.7,3.8,1.9,6.5c-0.8,1.9-3.8,2.7-6.5,1.9
				c-30.8-14.9-60-15.9-86.2-11.1c-14.9,149.5-30.8,389.5,26.2,364.3c43-18.7,81.4-133.6,109.5-211.2c0.8-2.7,3.8-3.8,5.7-2.7
				C1695.4,1678.1,1696.4,1680,1695.4,1683z"/>
			<path id="XMLID_9_" class="st1" d="M1557.1,1912.7c-12.4,0-23.4-4.4-32.8-13.2c-50.7-47.4-44.5-216.9-30.3-350.7l0.2-1.8
				c-2.1,0.9-3.6,1.8-4.9,2.5c-5.5,3.1-9.1,4.7-29.4,6.2c-13.4,1-23-1.2-27.2-6.1c-1.8-2.2-2.5-4.8-1.9-7.4
				c1.6-6.3,9.4-5.9,15.1-5.6c1.4,0.1,2.7,0.1,3.6,0.1l0.3,0l0.3,0c11.7,1,15.4-0.3,29.2-5.2c4.5-1.6,9.9-3.5,16.8-5.8
				c8.2-63.3,15.5-110.6,15.6-111l0.1-0.6c3.3-11.1,15.9-16,36.6-14.3c5.7,0.4,10.9,3,14.6,7.4c3.7,4.5,5.5,10.4,4.9,16.3
				c-0.5,4-1,8.6-1.6,13.8c-2.2,18.6-5.1,43.7-8.2,73.6c30.7-3.4,58.8,1.2,85.7,14.2c4,1.8,6,7.1,4.4,12.2l-0.2,0.5
				c-1.8,4.2-7.1,6.1-12.3,4.5l-0.7-0.3c-25.2-12.2-51.4-15.9-79.7-11.3c-20.5,207.3-17.6,336.8,8,355.3c2.2,1.6,5.7,3.3,11.9,0.6
				c37.9-16.5,74.1-117.1,100.5-190.7c2.2-6.1,4.3-12,6.4-17.7c0.8-2.6,2.8-4.7,5.3-5.7c2.3-0.9,4.7-0.9,6.8,0.2
				c5.2,2,7.4,6.6,5.5,11.8c-27.6,78-54.8,151.4-85,191.9c-11.7,15.3-26.4,31.5-47.8,35.4
				C1563.6,1912.5,1560.3,1912.7,1557.1,1912.7z M1505.1,1533.1l-1.5,16.7c-19.7,186.2-10,307.9,27.3,342.8
				c9.6,9,20.9,12.2,34.5,9.9c15.5-2.8,27.4-13.9,37.1-25.7c-7.5,8.7-15.3,15.1-23.3,18.6c-9.8,4.3-17,1.5-21.3-1.6
				c-29.8-21.6-33.7-145.3-11.5-367.6l0.4-3.6l3.5-0.6c7.5-1.4,14.9-2.2,22.1-2.5c-6.1,0.2-12.3,0.7-18.7,1.7l-5.4,0.8l0-6.8
				c3.3-32.2,6.4-59.1,8.7-78.8c0.6-5.2,1.1-9.8,1.6-13.7c0.4-3.4-0.6-6.6-2.7-9.1c-2-2.4-4.8-3.8-8-4c-7.2-0.6-23.9-1-26.7,7.2
				c-0.7,4.5-8,51.7-15.9,113.4l-0.4,3l-2.9,0.9c-8.2,2.7-14.5,4.9-19.5,6.7c-6.8,2.4-11.6,4.1-16.3,5.1c12.7-1.2,14.9-2.4,18.4-4.4
				c2.7-1.5,6.1-3.5,13.5-5.9L1505.1,1533.1z M1638.9,1533.3c0,0,0.1,0,0.1,0c-1.4-0.6-2.7-1.3-4.1-1.9
				C1636.3,1532.1,1637.6,1532.7,1638.9,1533.3z"/>
		</g>
		<g id="XMLID_46_">
			<path id="XMLID_3_" class="st1" d="M1208.6,1703.5c-27.1,76.6-54.3,150.4-84.3,190.7c-11.3,14.9-25.4,30-44.9,33.6
				c-91.7,15.9-83.3-207.4-67.3-357.8l0.8-9.4c-19.7,6.5-8.8,8.8-40.1,11.1c-17,1.3-25.2-3.1-24.1-7.6c0.8-3.4,10.1-1.7,14.3-1.9
				c17.2,1.5,19.1-1.9,50.8-12.2c8.4-65.4,15.9-113.9,15.9-113.9c3.1-10.7,18.9-12,31.7-10.9c9.4,0.6,16.1,9,15.1,18.5
				c-2.1,18.5-6.1,51.6-10.3,92.5v0.8c26.2-3.8,56.2-2.7,88.9,13c1.9,0.8,2.7,3.8,1.9,6.5c-0.8,1.9-3.8,2.7-6.5,1.9
				c-30.8-14.9-60-15.9-86.2-11.1c-14.9,149.5-30.8,389.5,26.2,364.3c43-18.7,81.4-133.6,109.5-211.2c0.8-2.7,3.8-3.8,5.7-2.7
				C1208.6,1698.9,1209.4,1700.8,1208.6,1703.5z"/>
			<path id="XMLID_4_" class="st1" d="M1070.3,1933.3c-12.4,0-23.4-4.4-32.8-13.2c-50.7-47.4-44.5-216.9-30.3-350.7l0.2-1.8
				c-2.1,0.9-3.6,1.8-4.9,2.5c-5.5,3.1-9.1,4.7-29.4,6.2c-13.4,1-23-1.2-27.2-6.1c-1.8-2.2-2.5-4.8-1.9-7.4
				c1.6-6.3,9.4-5.9,15.1-5.6c1.4,0.1,2.7,0.1,3.6,0.1l0.3,0l0.3,0c11.7,1,15.4-0.3,29.2-5.2c4.5-1.6,9.9-3.5,16.8-5.8
				c8.2-63.3,15.5-110.5,15.6-111l0.1-0.6c3.3-11.1,15.9-16,36.6-14.3c5.7,0.4,10.9,3,14.6,7.4c3.7,4.5,5.5,10.4,4.9,16.3
				c-0.5,4-1,8.6-1.6,13.8c-2.2,18.6-5.1,43.6-8.2,73.5c30.7-3.4,58.8,1.2,85.7,14.2c4,1.8,6,7.1,4.4,12.2l-0.2,0.5
				c-1.8,4.2-7.1,6.1-12.3,4.5l-0.7-0.3c-25.2-12.2-51.4-15.9-79.7-11.3c-20.5,207.3-17.6,336.7,8,355.3c2.2,1.6,5.7,3.3,11.9,0.6
				c37.9-16.5,74.1-117.2,100.5-190.7c2.2-6.1,4.3-12,6.4-17.7c0.9-2.6,2.8-4.7,5.3-5.7c2.3-0.9,4.8-0.8,7,0.2
				c4.9,2.2,7,6.5,5.4,11.6l-0.1,0.2c-27.6,78-54.8,151.4-85,191.9c-11.7,15.3-26.4,31.5-47.9,35.4
				C1076.8,1933,1073.5,1933.3,1070.3,1933.3z M1018.3,1553.7l-1.5,16.7c-19.7,186.2-10,307.9,27.3,342.8c9.6,9,20.9,12.2,34.5,9.9
				c15.5-2.8,27.4-13.9,37.1-25.6c-7.5,8.7-15.3,15.1-23.3,18.6c-9.8,4.3-17,1.5-21.3-1.6c-29.8-21.6-33.7-145.3-11.5-367.6l0.4-3.6
				l3.5-0.6c7.5-1.4,14.9-2.2,22.2-2.5c-6.1,0.2-12.4,0.7-18.8,1.7l-5.4,0.8l0-6.8c3.3-32.2,6.4-59.1,8.7-78.7
				c0.6-5.2,1.1-9.8,1.6-13.8c0.4-3.4-0.6-6.6-2.7-9.1c-2-2.4-4.8-3.8-8-4c-7.2-0.6-23.9-1-26.7,7.2c-0.7,4.5-8,51.7-15.9,113.4
				l-0.4,3l-2.9,0.9c-8.2,2.7-14.5,4.9-19.5,6.7c-6.8,2.4-11.6,4.1-16.3,5.1c12.7-1.2,14.9-2.4,18.4-4.4c2.7-1.5,6.1-3.5,13.5-5.9
				L1018.3,1553.7z M1152.1,1553.9C1152.2,1553.9,1152.2,1553.9,1152.1,1553.9c-1.3-0.6-2.6-1.2-4-1.8
				C1149.5,1552.6,1150.8,1553.3,1152.1,1553.9z"/>
		</g>
	</g>
</g>
<g id="Layer_2">
	<g id="XMLID_14_">
		<path id="XMLID_1_" class="st0" d="M1161.6,1115.4c-76.1-105.3-162.1-246-228.4-283.1c-60.4-34-118.7-51.2-147.7-89.3
			C685.3,615.4,608.9,515.3,534.9,390.8c-13.2-18.9,8.4-36.7,22.2-18l218.5,281.9c6.9,8.8,30-6.7,21.8-16.4L583.5,349.6
			c-14.1-16.4,7.3-36.7,20.3-18.7l232.2,279c7.6,10.9,26.4-2.9,20.3-12.8L638.1,307.7c-14.1-18,6.7-31,19.1-14.9l273.7,336.4
			c22.9,26.8,36.9,74.7,44.7,111.2c7.8,36.3,22,69.8,42.6,99.4c44.3,63.6,123.1,174.1,183.1,244.8l248.3,304.1
			c49.5,56.6-17.4,110.3-63.3,48.9L1161.6,1115.4z"/>
	</g>
</g>
</svg>
